<svg xmlns="http://www.w3.org/2000/svg" version="1.1" xmlns:xlink="http://www.w3.org/1999/xlink" xmlns:svgjs="http://svgjs.com/svgjs" width="1440" height="560" preserveAspectRatio="none" viewBox="0 0 1440 560"><g mask="url(&quot;#SvgjsMask1106&quot;)" fill="none"><path d="M -1302.898815535721,194 C -1158.9,219.6 -870.9,327.6 -582.898815535721,322 C -294.9,316.4 -150.9,165.8 137.10118446427896,166 C 425.1,166.2 596.52,302.8 857.101184464279,323 C 1117.68,343.2 1323.42,278.2 1440,267" stroke="rgba(231, 76, 60, 1)" stroke-width="2"></path><path d="M -1184.7334179132854,309 C -1040.73,295.2 -752.73,227.6 -464.73341791328545,240 C -176.73,252.4 -32.73,393.4 255.26658208671455,371 C 543.27,348.6 738.32,143.2 975.2665820867146,128 C 1212.21,112.8 1347.05,261.6 1440,295" stroke="rgba(231, 76, 60, 1)" stroke-width="2"></path><path d="M -337.0863864423677,312 C -193.09,288.2 94.91,176.6 382.9136135576323,193 C 670.91,209.4 814.91,402.4 1102.9136135576323,394 C 1390.91,385.6 1755.5,169 1822.9136135576323,151 C 1890.33,133 1516.58,273.4 1440,304" stroke="rgba(231, 76, 60, 1)" stroke-width="2"></path></g><defs><mask id="SvgjsMask1106"><rect width="1440" height="560" fill="#ffffff"></rect></mask></defs></svg>